<svg width="1024" height="1024" viewBox="0 0 1024 1024" fill="none" xmlns="http://www.w3.org/2000/svg">
<path d="M680.792 469.667C682.428 469.667 683.898 470.662 684.506 472.181L805.972 775.848C807.023 778.475 805.088 781.333 802.259 781.333H749.816C748.181 781.333 746.71 780.338 746.102 778.82L714.086 698.847C713.479 697.329 712.008 696.333 710.373 696.333H599.906C598.27 696.333 596.799 697.33 596.191 698.849L564.23 778.818C563.623 780.337 562.152 781.333 560.516 781.333H508.103C505.273 781.333 503.338 778.475 504.389 775.848L625.828 472.181C626.435 470.663 627.906 469.667 629.542 469.667H680.792ZM658.878 560.694C657.538 557.341 652.792 557.34 651.45 560.692L622.031 634.18C620.98 636.808 622.915 639.667 625.745 639.667H684.535C687.365 639.667 689.3 636.809 688.25 634.182L658.878 560.694Z" fill="#D9D9D9" style="fill:#D9D9D9;fill:color(display-p3 0.8510 0.8510 0.8510);fill-opacity:1;"/>
</svg>
