<svg width="1024" height="1024" viewBox="0 0 1024 1024" fill="none" xmlns="http://www.w3.org/2000/svg">
<path d="M438.667 243C440.876 243 442.667 244.791 442.667 247V295.667C442.667 297.876 444.458 299.667 446.667 299.667H608.667C610.876 299.667 612.667 301.458 612.667 303.667V352.333C612.667 354.542 610.876 356.333 608.667 356.333H559.793C558.07 356.333 556.541 357.438 555.989 359.07C534.505 422.554 500.867 481.245 456.956 531.869C455.515 533.53 455.664 536.045 457.318 537.494C476.065 553.906 496.232 568.623 517.581 581.47C519.272 582.488 519.986 584.579 519.253 586.411L500.95 632.182C500.05 634.432 497.37 635.373 495.273 634.157C467.365 617.976 441.151 599.035 417.026 577.617C415.491 576.255 413.177 576.257 411.645 577.623C362.63 621.306 305.049 654.293 242.577 674.481C240.426 675.176 238.137 673.931 237.532 671.753L224.483 624.792C223.907 622.72 225.074 620.565 227.117 619.893C280.256 602.406 329.328 574.393 371.404 537.526C373.059 536.076 373.205 533.559 371.761 531.898C341.964 497.632 316.858 459.559 297.101 418.68C295.826 416.043 297.759 413 300.688 413H355.483C356.951 413 358.299 413.805 359.005 415.092C373.827 442.113 391.359 467.553 411.329 491.021C412.906 492.874 415.76 492.873 417.335 491.019C450.083 452.497 476.225 408.82 494.702 361.763C495.724 359.159 493.792 356.361 490.995 356.361L220 356.334C217.791 356.334 216 354.543 216 352.334V303.667C216 301.458 217.791 299.667 220 299.667H382C384.209 299.667 386 297.876 386 295.667V247C386 244.791 387.791 243 390 243H438.667Z" fill="#545454" style="fill:#545454;fill:color(display-p3 0.3294 0.3294 0.3294);fill-opacity:1;"/>
</svg>
